<svg xmlns="http://www.w3.org/2000/svg" viewBox="0 0 24 24">
  <path fill="#25D366" d="M12 2a10 10 0 0 0-9.46 13.24L2 22l6.9-2.22A10 10 0 1 0 12 2z"/>
  <path fill="#fff" d="M16.03 14.56c-.25-.12-1.47-.72-1.7-.8-.23-.08-.4-.12-.57.12-.17.23-.66.8-.81.96-.15.17-.3.18-.55.06-.25-.12-1.05-.39-2-1.24-.74-.66-1.24-1.47-1.39-1.72-.15-.26-.02-.4.11-.52.11-.11.25-.29.37-.43.12-.14.17-.23.26-.39.09-.17.04-.31-.02-.43-.06-.12-.57-1.38-.78-1.89-.21-.5-.42-.43-.57-.44-.15-.01-.31-.01-.48-.01-.17 0-.43.06-.66.31-.23.25-.87.85-.87 2.07 0 1.22.9 2.39 1.02 2.55.12.17 1.77 2.7 4.3 3.78.6.26 1.06.41 1.42.53.6.19 1.15.16 1.58.1.48-.07 1.47-.6 1.68-1.18.21-.58.21-1.08.15-1.18-.06-.09-.23-.15-.48-.27z"/>
</svg>
